<svg width="29" height="33" viewBox="0 0 29 33" fill="none" xmlns="http://www.w3.org/2000/svg">
<g clip-path="url(#clip0_919_345)">
<path d="M27.72 14.52H24.915V5.28C24.915 2.36363 22.5514 0 19.635 0H9.405C6.48863 0 4.125 2.36363 4.125 5.28V14.52H1.32C0.589875 14.52 0 15.1099 0 15.84V31.68C0 32.4101 0.589875 33 1.32 33H27.72C28.4501 33 29.04 32.4101 29.04 31.68V15.84C29.04 15.1099 28.4501 14.52 27.72 14.52ZM15.675 24.2963V26.4825C15.675 26.664 15.5265 26.8125 15.345 26.8125H13.695C13.5135 26.8125 13.365 26.664 13.365 26.4825V24.2963C13.0245 24.0518 12.7703 23.7056 12.6391 23.3075C12.5079 22.9094 12.5064 22.4799 12.6348 22.0809C12.7632 21.6818 13.0149 21.3338 13.3537 21.087C13.6925 20.8401 14.1008 20.7071 14.52 20.7071C14.9392 20.7071 15.3475 20.8401 15.6863 21.087C16.0251 21.3338 16.2768 21.6818 16.4052 22.0809C16.5336 22.4799 16.5321 22.9094 16.4009 23.3075C16.2697 23.7056 16.0155 24.0518 15.675 24.2963ZM21.945 14.52H7.095V5.28C7.095 4.00538 8.13038 2.97 9.405 2.97H19.635C20.9096 2.97 21.945 4.00538 21.945 5.28V14.52Z" fill="white"/>
</g>
<defs>
<clipPath id="clip0_919_345">
<rect width="29" height="33" fill="white"/>
</clipPath>
</defs>
</svg>
