<svg width="30" height="34" viewBox="0 0 30 34" fill="none" xmlns="http://www.w3.org/2000/svg">
<g clip-path="url(#clip0_923_414)">
<path d="M16.0175 0.932311C15.8509 0.947894 15.6889 0.996154 15.5409 1.07433C15.3929 1.15251 15.2617 1.25908 15.1549 1.38796C15.048 1.51683 14.9676 1.66548 14.9182 1.82543C14.8688 1.98538 14.8514 2.15348 14.867 2.32016C14.8985 2.65676 15.0624 2.96708 15.3227 3.18284C15.4515 3.28968 15.6002 3.37008 15.7601 3.41947C15.9201 3.46885 16.0882 3.48625 16.2549 3.47066C21.8926 3.47066 26.4083 7.92928 26.4083 13.6241C26.4083 13.9607 26.542 14.2835 26.78 14.5215C27.018 14.7595 27.3409 14.8933 27.6775 14.8933C28.0141 14.8933 28.3369 14.7595 28.5749 14.5215C28.8129 14.2835 28.9466 13.9607 28.9466 13.6241C28.9466 6.5738 23.2455 0.932311 16.2549 0.932311C16.2151 0.930441 16.1753 0.930441 16.1356 0.932311C16.0958 0.930443 16.0573 0.930443 16.0175 0.932311ZM16.0175 6.00902C15.6809 6.04049 15.3706 6.20439 15.1549 6.46466C14.9391 6.72493 14.8356 7.06026 14.867 7.39686C14.8985 7.73347 15.0624 8.04379 15.3227 8.25955C15.5829 8.47531 15.9183 8.57885 16.2549 8.54737C18.2779 8.54737 19.4659 8.98016 20.1817 9.69725C20.8975 10.4143 21.3316 11.6074 21.3316 13.6241C21.3316 13.9607 21.4653 14.2835 21.7033 14.5215C21.9413 14.7595 22.2642 14.8933 22.6008 14.8933C22.9374 14.8933 23.2602 14.7595 23.4982 14.5215C23.7362 14.2835 23.8699 13.9607 23.8699 13.6241C23.8699 11.238 23.3191 9.26826 21.9662 7.91278C20.6132 6.5573 18.6511 6.00902 16.2549 6.00902C16.2151 6.00715 16.1753 6.00715 16.1356 6.00902C16.0958 6.00715 16.0573 6.00715 16.0175 6.00902ZM7.01273 7.43684C5.85778 7.4305 4.88178 7.74271 4.19643 8.42807C1.83322 10.7913 -1.69636 17.9228 5.14831 24.7687C11.4092 31.0308 19.1245 28.0838 21.489 25.7206C23.3737 23.8359 22.5145 19.7974 19.6639 15.8058C19.1283 16.2373 18.495 17.6842 18.792 18.1855C20.202 20.5639 20.6082 22.6758 19.6245 23.6582C18.1104 25.1723 13.879 23.4259 10.1857 19.7326C6.4911 16.0355 4.74344 11.8092 6.26011 10.2925C7.18661 9.36472 9.11702 9.6579 11.3368 10.8877C11.8559 11.1746 13.332 10.5577 13.7559 10.0145C11.3317 8.3608 8.93553 7.44827 7.01273 7.43684ZM16.2549 11.0857C15.1291 11.0857 14.1683 11.8155 13.8358 12.8308L10.4243 13.2281C10.2723 13.2213 10.1206 13.2476 9.97972 13.3051C9.83887 13.3627 9.71219 13.4502 9.60845 13.5615C9.50471 13.6728 9.42638 13.8053 9.37889 13.9499C9.33139 14.0945 9.31585 14.2476 9.33335 14.3988C9.35085 14.5499 9.40096 14.6955 9.48023 14.8254C9.5595 14.9553 9.66603 15.0664 9.79246 15.1511C9.91889 15.2357 10.0622 15.2919 10.2125 15.3158C10.3628 15.3397 10.5164 15.3306 10.6629 15.2892L14.0732 14.9339C14.2889 15.2943 14.5846 15.59 14.9464 15.8058L14.5897 19.2161C14.5484 19.3625 14.5393 19.5162 14.5632 19.6665C14.587 19.8168 14.6432 19.9601 14.7279 20.0865C14.8126 20.2129 14.9237 20.3195 15.0536 20.3987C15.1835 20.478 15.329 20.5281 15.4802 20.5456C15.6313 20.5631 15.7845 20.5476 15.9291 20.5001C16.0736 20.4526 16.2061 20.3742 16.3175 20.2705C16.4288 20.1668 16.5163 20.0401 16.5738 19.8992C16.6314 19.7584 16.6577 19.6067 16.6509 19.4547L17.0481 16.0431C17.5565 15.8748 17.9989 15.5504 18.3123 15.1161C18.6256 14.6818 18.7939 14.1596 18.7932 13.6241C18.7932 12.9509 18.5258 12.3052 18.0498 11.8292C17.5737 11.3532 16.9281 11.0857 16.2549 11.0857ZM7.44933 28.9342C5.30061 29.9178 3.84233 31.786 3.84233 33.9309H18.6752C18.6752 32.6059 17.7132 31.0588 16.5341 30.4013C15.7269 30.5473 14.8626 30.6387 13.9957 30.6387C11.7039 30.6449 9.44946 30.0577 7.45186 28.9342H7.44933Z" fill="white"/>
</g>
<defs>
<clipPath id="clip0_923_414">
<rect width="29" height="33" fill="white" transform="translate(0.250977 0.930908)"/>
</clipPath>
</defs>
</svg>
