<svg width="42" height="34" viewBox="0 0 42 34" fill="none" xmlns="http://www.w3.org/2000/svg">
<path d="M32.1195 5.93091H6.4528C4.42776 5.93091 2.78613 7.57253 2.78613 9.59757V24.2642C2.78613 26.2893 4.42776 27.9309 6.4528 27.9309H32.1195C34.1445 27.9309 35.7861 26.2893 35.7861 24.2642V9.59757C35.7861 7.57253 34.1445 5.93091 32.1195 5.93091Z" stroke="white" stroke-width="2" stroke-linecap="round" stroke-linejoin="round"/>
<path d="M20.0191 11.4309L15.6191 16.9309H22.9525L18.5525 22.4309M35.7858 13.2642H38.5358C38.7789 13.2642 39.0121 13.3608 39.184 13.5327C39.3559 13.7046 39.4525 13.9378 39.4525 14.1809V19.6809C39.4525 19.924 39.3559 20.1572 39.184 20.3291C39.0121 20.501 38.7789 20.5976 38.5358 20.5976H35.7858V13.2642Z" stroke="white" stroke-width="2" stroke-linecap="round" stroke-linejoin="round"/>
</svg>
