<svg width="57.003906" height="46.711670" viewBox="0 0 57.0039 46.7117" fill="none" xmlns="http://www.w3.org/2000/svg" xmlns:xlink="http://www.w3.org/1999/xlink">
	<desc>
			Created with Pixso.
	</desc>
	<defs>
		<clipPath id="clip536_287">
			<rect rx="0.000000" width="56.909073" height="46.616665" transform="translate(0.047503 0.047503)" fill="white" fill-opacity="0"/>
		</clipPath>
	</defs>
	<g clip-path="url(#clip536_287)">
		<rect x="6.111328" y="17.797852" rx="0.427531" width="6.935495" height="0.855061" fill="#FFFFFF" fill-opacity="1.000000"/>
		<rect x="0.791016" y="19.792969" rx="0.427531" width="10.830775" height="0.855061" fill="#FFFFFF" fill-opacity="1.000000"/>
		<rect x="3.260742" y="23.498291" rx="0.427531" width="11.115795" height="0.855061" fill="#FFFFFF" fill-opacity="1.000000"/>
		<path d="M6.53 27.1L15.51 27.1L15.51 27.96L6.53 27.96C6.3 27.96 6.11 27.77 6.11 27.53C6.11 27.3 6.3 27.1 6.53 27.1Z" fill="#FFFFFF" fill-opacity="1.000000" fill-rule="evenodd"/>
		<path d="M8.62 21.5L15.51 21.5L15.51 22.35L8.62 22.35C8.39 22.35 8.2 22.16 8.2 21.93C8.2 21.69 8.39 21.5 8.62 21.5Z" fill="#FFFFFF" fill-opacity="1.000000" fill-rule="evenodd"/>
		<path d="M12.04 25.49L15.51 25.49L15.51 26.34L12.04 26.34C11.81 26.34 11.62 26.15 11.62 25.92C11.62 25.68 11.81 25.49 12.04 25.49Z" fill="#FFFFFF" fill-opacity="1.000000" fill-rule="evenodd"/>
		<path d="M52.7969 19.3225L21.7549 4.98438C18.7959 3.61768 15.417 5.77881 15.417 9.03833L15.417 37.7141C15.417 40.9734 18.7959 43.1348 21.7549 41.7681L52.7969 27.4299C56.2549 25.8333 56.2549 20.9192 52.7969 19.3225ZM38.6719 26.2808L28.1787 26.2808C28.2852 25.9583 28.3428 25.6135 28.3428 25.2556C28.3428 23.4453 26.875 21.978 25.0645 21.978C23.2539 21.978 21.7871 23.4453 21.7871 25.2556C21.7871 25.5144 21.8164 25.7661 21.873 26.0076L21.6064 25.9956C21.6064 25.9956 18.0498 25.5718 17.1416 24.0481C16.7656 23.4177 16.8564 22.5754 16.8564 22.5754L19.8486 22.6704L20.3242 21.2454L16.8564 21.0552C16.8564 21.0552 16.9629 20.1692 17.1416 19.6301C17.3076 19.1257 17.7109 18.395 17.7109 18.395C17.7109 18.395 18.5869 18.7727 19.1836 18.8225C19.666 18.863 20.4189 18.7275 20.4189 18.7275C20.4189 18.7275 26.0195 16.9299 29.7295 16.3999C30.3945 16.3049 31.7178 16.1799 32.96 16.3999C34.459 16.6655 36.5703 17.8726 36.5703 17.8726L39.9424 20.0576C39.9424 20.0576 41.4238 19.97 42.3652 20.0576C43.21 20.1362 43.6855 20.2126 44.5029 20.4377L44.5527 20.4514C45.2061 20.6313 45.5771 20.7334 46.2129 21.0078C46.8223 21.2705 47.5596 21.6914 47.7334 21.8154C47.7529 21.8291 47.7734 21.844 47.7969 21.8599C48.1611 22.1172 48.9111 22.6453 48.9111 23.4504C48.9111 24.2107 48.1514 24.6855 48.1514 24.6855L48.1514 26.3008L44.9004 26.2808C45.0059 25.9583 45.0635 25.6135 45.0635 25.2556C45.0635 23.4453 43.5957 21.978 41.7861 21.978C39.9756 21.978 38.5078 23.4453 38.5078 25.2556C38.5078 25.6135 38.5654 25.9583 38.6719 26.2808ZM37.7959 20.0303C37.083 19.2544 35.0117 17.5791 32.6172 17.4651C30.2236 17.3511 25.999 18.5894 24.21 19.1753L28.8652 20.6003L37.7959 20.0303ZM41.7852 22.738C40.3945 22.738 39.2676 23.8652 39.2676 25.2559C39.2676 26.6462 40.3945 27.7734 41.7852 27.7734C43.1758 27.7734 44.3027 26.6462 44.3027 25.2559C44.3027 23.8652 43.1758 22.738 41.7852 22.738ZM22.5469 25.2559C22.5469 23.8655 23.6738 22.7383 25.0645 22.7383C26.4551 22.7383 27.582 23.8655 27.582 25.2559C27.582 26.6462 26.4551 27.7737 25.0645 27.7737C23.6738 27.7737 22.5469 26.6462 22.5469 25.2559ZM15.5166 26.3484L20.1719 26.3484C20.3818 26.3484 20.5518 26.5186 20.5518 26.7283C20.5518 26.9382 20.3818 27.1084 20.1719 27.1084L15.5166 27.1084L15.5166 26.3484ZM19.8867 27.2034L22.333 27.2034C22.5508 27.4985 22.8184 27.7559 23.1221 27.9634L19.8867 27.9634C19.7295 27.9634 19.6016 27.8357 19.6016 27.6782L19.6016 27.4883C19.6016 27.3308 19.7295 27.2034 19.8867 27.2034ZM39.8428 27.9634L26.8174 27.9634C27.1211 27.7559 27.3877 27.4985 27.6064 27.2034L39.0537 27.2034C39.2725 27.4985 39.5391 27.7559 39.8428 27.9634ZM49.0537 27.9634L43.5381 27.9634C43.8418 27.7559 44.1084 27.4985 44.3271 27.2034L49.0537 27.2034C49.2109 27.2034 49.3389 27.3308 49.3389 27.4883L49.3389 27.6782C49.3389 27.8357 49.2109 27.9634 49.0537 27.9634Z" clip-rule="evenodd" fill="#FFFFFF" fill-opacity="1.000000" fill-rule="evenodd"/>
	</g>
</svg>
