<svg width="98.373047" height="80.610840" viewBox="0 0 98.373 80.6108" fill="none" xmlns="http://www.w3.org/2000/svg" xmlns:xlink="http://www.w3.org/1999/xlink">
	<desc>
			Created with Pixso.
	</desc>
	<defs>
		<clipPath id="clip553_59">
			<rect rx="0.000000" width="98.208717" height="80.446976" transform="translate(0.081977 0.081977)" fill="white" fill-opacity="0"/>
		</clipPath>
	</defs>
	<g clip-path="url(#clip553_59)">
		<rect x="10.546875" y="30.713379" rx="0.737795" width="11.968673" height="1.475590" fill="#FFFFFF" fill-opacity="1.000000"/>
		<rect x="1.366211" y="34.156250" rx="0.737795" width="18.690809" height="1.475590" fill="#FFFFFF" fill-opacity="1.000000"/>
		<rect x="5.627930" y="40.550781" rx="0.737795" width="19.182671" height="1.475590" fill="#FFFFFF" fill-opacity="1.000000"/>
		<path d="M11.28 46.78L26.77 46.78L26.77 48.25L11.28 48.25C10.87 48.25 10.54 47.92 10.54 47.51C10.54 47.11 10.87 46.78 11.28 46.78Z" fill="#FFFFFF" fill-opacity="1.000000" fill-rule="evenodd"/>
		<path d="M14.89 37.1L26.77 37.1L26.77 38.58L14.89 38.58C14.48 38.58 14.15 38.25 14.15 37.84C14.15 37.43 14.48 37.1 14.89 37.1Z" fill="#FFFFFF" fill-opacity="1.000000" fill-rule="evenodd"/>
		<path d="M20.79 43.99L26.78 43.99L26.78 45.46L20.79 45.46C20.38 45.46 20.05 45.13 20.05 44.73C20.05 44.32 20.38 43.99 20.79 43.99Z" fill="#FFFFFF" fill-opacity="1.000000" fill-rule="evenodd"/>
		<path d="M91.1133 33.3442L37.543 8.60107C32.4365 6.24268 26.6055 9.97217 26.6055 15.5967L26.6055 65.0833C26.6055 70.708 32.4365 74.4375 37.543 72.0791L91.1133 47.3357C97.0791 44.5801 97.0791 36.1001 91.1133 33.3442ZM66.7363 45.3525L48.6289 45.3525C48.8125 44.7959 48.9111 44.2014 48.9111 43.5837C48.9111 40.4597 46.3789 37.9272 43.2549 37.9272C40.1309 37.9272 37.5986 40.4597 37.5986 43.5837C37.5986 44.0303 37.6504 44.4646 37.748 44.8813L37.2871 44.8606C37.2871 44.8606 31.1494 44.1292 29.5811 41.4995C28.9326 40.4119 29.0889 38.9583 29.0889 38.9583L34.2539 39.1223L35.0732 36.6628L29.0889 36.335C29.0889 36.335 29.2744 34.8057 29.5811 33.8757C29.8682 33.0051 30.5645 31.7444 30.5645 31.7444C30.5645 31.7444 32.0762 32.3958 33.1064 32.4822C33.9385 32.5518 35.2373 32.3181 35.2373 32.3181C35.2373 32.3181 44.9023 29.2161 51.3047 28.3013C52.4531 28.1372 54.7363 27.9216 56.8799 28.3013C59.4668 28.7593 63.1104 30.8425 63.1104 30.8425L68.9307 34.6135C68.9307 34.6135 71.4854 34.4622 73.1113 34.6135C74.5684 34.749 75.3896 34.8806 76.7998 35.2693L76.8857 35.2927C78.0127 35.6033 78.6533 35.7798 79.751 36.2529C80.8027 36.7065 82.0752 37.4329 82.375 37.6467C82.4082 37.6704 82.4443 37.6963 82.4834 37.7236C83.1133 38.1675 84.4072 39.0789 84.4072 40.4685C84.4072 41.78 83.0957 42.5999 83.0957 42.5999L83.0957 45.3872L77.4854 45.3525C77.668 44.7959 77.7676 44.2014 77.7676 43.5837C77.7676 40.4597 75.2344 37.9272 72.1104 37.9272C68.9863 37.9272 66.4541 40.4597 66.4541 43.5837C66.4541 44.2014 66.5537 44.7959 66.7363 45.3525ZM65.2246 34.5662C63.9951 33.2273 60.4209 30.3362 56.2891 30.1394C52.1572 29.9426 44.8672 32.0796 41.7793 33.0906L49.8125 35.5498L65.2246 34.5662ZM38.9092 43.584C38.9092 41.1843 40.8545 39.2393 43.2539 39.2393C45.6533 39.2393 47.5986 41.1843 47.5986 43.584C47.5986 45.9836 45.6533 47.9287 43.2539 47.9287C40.8545 47.9287 38.9092 45.9836 38.9092 43.584ZM72.1084 39.2393C69.709 39.2393 67.7637 41.1846 67.7637 43.584C67.7637 45.9836 69.709 47.929 72.1084 47.929C74.5078 47.929 76.4531 45.9836 76.4531 43.584C76.4531 41.1846 74.5078 39.2393 72.1084 39.2393ZM26.7773 45.469L34.8105 45.469C35.1729 45.469 35.4668 45.7627 35.4668 46.125C35.4668 46.4871 35.1729 46.7808 34.8105 46.7808L26.7773 46.7808L26.7773 45.469ZM34.3184 46.9446L38.54 46.9446C38.917 47.4541 39.3779 47.8982 39.9014 48.2563L34.3184 48.2563C34.0469 48.2563 33.8271 48.0361 33.8271 47.7644L33.8271 47.4365C33.8271 47.1648 34.0469 46.9446 34.3184 46.9446ZM68.7578 48.2563L46.2793 48.2563C46.8027 47.8982 47.2637 47.4541 47.6406 46.9446L67.3965 46.9446C67.7734 47.4541 68.2334 47.8982 68.7578 48.2563ZM84.6523 48.2563L75.1348 48.2563C75.6592 47.8982 76.1191 47.4541 76.4961 46.9446L84.6523 46.9446C84.9248 46.9446 85.1445 47.1648 85.1445 47.4365L85.1445 47.7644C85.1445 48.0361 84.9248 48.2563 84.6523 48.2563Z" clip-rule="evenodd" fill="#FFFFFF" fill-opacity="1.000000" fill-rule="evenodd"/>
	</g>
</svg>
