<svg width="31" height="31" viewBox="0 0 31 31" fill="none" xmlns="http://www.w3.org/2000/svg">
<g clip-path="url(#clip0_620_51)">
<path d="M21.598 9.18724C21.6041 9.18724 21.6122 9.18724 21.6203 9.18724C21.8325 9.18724 22.0295 9.25324 22.1909 9.36695L22.1879 9.36492C22.3057 9.46746 22.3848 9.61163 22.4041 9.77408V9.77712C22.4244 9.90099 22.4356 10.0431 22.4356 10.1883C22.4356 10.2543 22.4336 10.3193 22.4285 10.3843V10.3751C22.2001 12.7803 21.2091 18.6132 20.7056 21.3057C20.4924 22.4459 20.073 22.8276 19.6669 22.8642C18.7846 22.9464 18.1145 22.2814 17.2597 21.721C15.9215 20.8427 15.1651 20.2965 13.8666 19.4406C12.365 18.4528 13.3386 17.9075 14.1935 17.0202C14.4179 16.7867 18.3075 13.2484 18.3836 12.9276C18.3877 12.9083 18.3897 12.887 18.3897 12.8646C18.3897 12.7854 18.3602 12.7133 18.3125 12.6585C18.2597 12.624 18.1937 12.6047 18.1247 12.6047C18.079 12.6047 18.0354 12.6138 17.9947 12.6291L17.9968 12.6281C17.8628 12.6585 15.7252 14.0711 11.5842 16.8659C11.1324 17.2222 10.5618 17.4476 9.94047 17.474H9.93438C9.05412 17.3674 8.25509 17.1715 7.49667 16.8923L7.5718 16.9166C6.61946 16.6059 5.86307 16.4425 5.92805 15.9166C5.96257 15.6431 6.33958 15.3632 7.05908 15.0769C11.4911 13.1458 14.4467 11.873 15.9256 11.2584C17.5572 10.3924 19.4486 9.67966 21.4376 9.2177L21.597 9.18623L21.598 9.18724ZM15.3113 0.0344238C6.88242 0.0547296 0.0566406 6.89269 0.0566406 15.3247C0.0566406 23.7688 6.90171 30.6149 15.3469 30.6149C23.792 30.6149 30.6371 23.7698 30.6371 15.3247C30.6371 6.89269 23.8113 0.0547296 15.3844 0.0344238H15.3824C15.3587 0.0344238 15.335 0.0344238 15.3113 0.0344238Z" fill="white"/>
</g>
<defs>
<clipPath id="clip0_620_51">
<rect width="30.7641" height="30.7641" fill="white"/>
</clipPath>
</defs>
</svg>
