<svg width="32" height="31" viewBox="0 0 32 31" fill="none" xmlns="http://www.w3.org/2000/svg">
<g clip-path="url(#clip0_620_47)">
<path d="M16 0C7.43948 0 0.5 6.93948 0.5 15.5C0.5 24.0605 7.43948 31 16 31C24.5605 31 31.5 24.0605 31.5 15.5C31.5 6.93948 24.5605 0 16 0ZM21.961 17.4876C21.961 17.4876 23.3318 18.8406 23.6693 19.4686C23.679 19.4816 23.6838 19.4945 23.687 19.5009C23.8243 19.7318 23.8566 19.911 23.7888 20.0451C23.6757 20.2679 23.2882 20.3777 23.1558 20.3873H20.734C20.566 20.3873 20.2141 20.3437 19.7878 20.0499C19.4601 19.8206 19.1371 19.4444 18.8223 19.0779C18.3524 18.5322 17.9456 18.0607 17.5355 18.0607C17.4834 18.0606 17.4316 18.0688 17.3821 18.0849C17.0721 18.1851 16.6749 18.6274 16.6749 19.8061C16.6749 20.1742 16.3843 20.3857 16.1792 20.3857H15.07C14.6922 20.3857 12.724 20.2533 10.9803 18.4143C8.84578 16.162 6.92443 11.6444 6.90828 11.6024C6.78719 11.3102 7.03745 11.1535 7.31031 11.1535H9.75641C10.0826 11.1535 10.1891 11.3521 10.2634 11.5281C10.3506 11.7332 10.6703 12.5485 11.195 13.4656C12.0459 14.9607 12.5674 15.5678 12.9856 15.5678C13.064 15.5669 13.141 15.5469 13.21 15.5097C13.7557 15.2061 13.654 13.2606 13.6298 12.8569C13.6298 12.781 13.6282 11.9867 13.3489 11.6056C13.1486 11.3295 12.808 11.2246 12.6013 11.1858C12.6849 11.0704 12.7952 10.9768 12.9226 10.913C13.2972 10.7257 13.9721 10.6982 14.6421 10.6982H15.0151C15.7417 10.7079 15.929 10.7547 16.1921 10.8209C16.7249 10.9485 16.7362 11.2924 16.6894 12.4694C16.6749 12.8036 16.6604 13.1815 16.6604 13.6271C16.6604 13.724 16.6555 13.8273 16.6555 13.9371C16.6394 14.5361 16.62 15.2158 17.043 15.4952C17.0982 15.5298 17.162 15.5482 17.2271 15.5484C17.374 15.5484 17.8164 15.5484 19.0144 13.4931C19.3839 12.8315 19.705 12.144 19.9751 11.4361C19.9993 11.3941 20.0704 11.2649 20.1543 11.2149C20.2163 11.1833 20.285 11.1672 20.3545 11.1681H23.2301C23.5433 11.1681 23.7581 11.2149 23.7984 11.336C23.8695 11.5281 23.7855 12.1142 22.4729 13.8919L21.8868 14.6653C20.6968 16.2249 20.6968 16.3041 21.961 17.4876Z" fill="white"/>
</g>
<defs>
<clipPath id="clip0_620_47">
<rect width="32" height="31" fill="white"/>
</clipPath>
</defs>
</svg>
