<svg width="88" height="31" viewBox="0 0 88 31" fill="none" xmlns="http://www.w3.org/2000/svg">
<g clip-path="url(#clip0_620_54)">
<path d="M72.2637 0C80.8241 0 87.7637 6.93959 87.7637 15.5C87.7637 24.0604 80.8241 31 72.2637 31H17.2637C8.70326 31 1.76367 24.0604 1.76367 15.5C1.76367 6.93959 8.70326 0 17.2637 0H72.2637ZM11.3545 12.2285C7.73921 12.2287 4.80859 15.1601 4.80859 18.7754C4.80877 22.3906 7.73933 25.3211 11.3545 25.3213C14.9698 25.3213 17.9012 22.3907 17.9014 18.7754C17.9014 15.1599 14.97 12.2285 11.3545 12.2285ZM23.2549 16.583C21.0707 16.583 19.2998 18.3536 19.2998 20.5381C19.3 22.7224 21.0707 24.4932 23.2549 24.4932C25.4392 24.4931 27.2098 22.7224 27.21 20.5381C27.21 18.3536 25.4393 16.583 23.2549 16.583ZM62.4531 9.71777V11.8604H61.0957V13.8223H62.4531V17.4365C62.4532 18.4829 62.7426 19.2735 63.3203 19.8076C63.8981 20.3307 64.7047 20.5918 65.7402 20.5918C66.1325 20.5918 66.5086 20.549 66.8682 20.4619C67.2388 20.3638 67.5557 20.2215 67.8174 20.0361L67.1299 18.2373C66.8465 18.4553 66.5029 18.5645 66.0996 18.5645C65.762 18.5644 65.495 18.4665 65.2988 18.2705C65.1026 18.0634 65.0039 17.774 65.0039 17.4033V13.8223H67.1953V11.8604H65.0039V9.71777H62.4531ZM73.9814 11.5332C73.044 11.5332 72.2099 11.7287 71.4795 12.1211C70.76 12.5027 70.1879 13.0378 69.7627 13.7246C69.3485 14.4004 69.1406 15.1796 69.1406 16.0625C69.1406 16.9346 69.3484 17.7146 69.7627 18.4014C70.1878 19.0771 70.7601 19.6115 71.4795 20.0039C72.2099 20.3963 73.044 20.5918 73.9814 20.5918C74.9079 20.5918 75.7365 20.3962 76.4668 20.0039C77.1972 19.6115 77.7703 19.0772 78.1846 18.4014C78.5988 17.7146 78.8057 16.9346 78.8057 16.0625C78.8057 15.1687 78.5987 14.3838 78.1846 13.708C77.7703 13.0321 77.1972 12.5027 76.4668 12.1211C75.7365 11.7288 74.9079 11.5332 73.9814 11.5332ZM36.7188 9.01465L31.6162 20.4619H34.3311L35.3506 18.0088H40.6572L41.6738 20.4619H44.4531L39.335 9.01465H36.7188ZM44.5078 11.6641L48.2031 20.4619H50.8359L54.5479 11.6641H52.0947L49.5723 17.6533L47.1396 11.6641H44.5078ZM56.4062 11.6641V20.4619H58.957V11.6641H56.4062ZM73.9814 13.626C74.4065 13.626 74.7881 13.7238 75.126 13.9199C75.4639 14.1161 75.7315 14.3943 75.9277 14.7539C76.124 15.1136 76.2217 15.5501 76.2217 16.0625C76.2217 16.564 76.124 17.0004 75.9277 17.3711C75.7315 17.7308 75.4639 18.0089 75.126 18.2051C74.7881 18.4012 74.4065 18.499 73.9814 18.499C73.5564 18.499 73.1748 18.4012 72.8369 18.2051C72.4991 18.0089 72.2266 17.7307 72.0195 17.3711C71.8233 17.0004 71.7246 16.564 71.7246 16.0625C71.7246 15.5501 71.8233 15.1136 72.0195 14.7539C72.2266 14.3944 72.4991 14.1161 72.8369 13.9199C73.1748 13.7238 73.5564 13.626 73.9814 13.626ZM39.8242 15.9971H36.1875L38.0088 11.6152L39.8242 15.9971ZM21.7178 3.94922C18.4528 3.94928 15.8059 6.59652 15.8057 9.86133C15.8057 13.1263 18.4528 15.7734 21.7178 15.7734C24.9828 15.7734 27.6299 13.1264 27.6299 9.86133C27.6297 6.59632 24.9827 3.94922 21.7178 3.94922ZM12.6064 5.34375C10.9288 5.34375 9.56836 6.70425 9.56836 8.38184C9.56844 10.0592 10.9288 11.4189 12.6064 11.4189C14.2839 11.4188 15.6435 10.0592 15.6436 8.38184C15.6436 6.7043 14.2839 5.3439 12.6064 5.34375ZM57.6816 7.5918C57.213 7.59186 56.8314 7.7285 56.5371 8.00098C56.2429 8.27348 56.0957 8.61138 56.0957 9.01465C56.0957 9.41791 56.2429 9.75582 56.5371 10.0283C56.8314 10.3008 57.213 10.4374 57.6816 10.4375C58.1612 10.4375 58.5427 10.3007 58.8262 10.0283C59.1204 9.74494 59.2685 9.39086 59.2686 8.96582C59.2686 8.56246 59.1205 8.23512 58.8262 7.98438C58.5319 7.72289 58.1503 7.5918 57.6816 7.5918Z" fill="white"/>
</g>
<defs>
<clipPath id="clip0_620_54">
<rect width="87" height="31" fill="white" transform="translate(0.763672)"/>
</clipPath>
</defs>
</svg>
