<svg width="31" height="31" viewBox="0 0 31 31" fill="none" xmlns="http://www.w3.org/2000/svg">
<path fill-rule="evenodd" clip-rule="evenodd" d="M15.3507 0C6.88567 0 0 6.88759 0 15.355C0 18.7131 1.08295 21.8274 2.92388 24.3551L1.01062 30.0601L6.91266 28.1738C9.34015 29.7806 12.237 30.7103 15.3596 30.7103C23.8246 30.7103 30.7103 23.8224 30.7103 15.3553C30.7103 6.88787 23.8246 0.000253826 15.3596 0.000253826L15.3507 0ZM11.0639 7.79966C10.7662 7.08657 10.5405 7.05957 10.0895 7.04123C9.93588 7.03231 9.76472 7.0234 9.57498 7.0234C8.98816 7.0234 8.37461 7.19486 8.00454 7.57395C7.55347 8.03431 6.43433 9.1084 6.43433 11.3111C6.43433 13.5138 8.0407 15.6442 8.25719 15.9422C8.48285 16.2398 11.3889 20.8256 15.9011 22.6946C19.4296 24.1569 20.4767 24.0214 21.2797 23.8499C22.4528 23.5972 23.924 22.7302 24.294 21.6834C24.6641 20.6361 24.6641 19.7423 24.5556 19.5528C24.4473 19.3632 24.1493 19.2552 23.6983 19.0293C23.2472 18.8035 21.054 17.7203 20.6389 17.5758C20.2327 17.4224 19.8448 17.4767 19.5381 17.9101C19.1049 18.5149 18.6808 19.1289 18.3378 19.4988C18.067 19.7877 17.6246 19.8239 17.2548 19.6702C16.7584 19.4629 15.3688 18.975 13.6539 17.4494C12.3272 16.2671 11.4248 14.7958 11.1633 14.3535C10.9014 13.9023 11.1362 13.6402 11.3436 13.3966C11.5692 13.1166 11.7857 12.9182 12.0114 12.6563C12.2371 12.3946 12.3634 12.2591 12.5078 11.9521C12.6614 11.6543 12.5529 11.3473 12.4446 11.1216C12.3364 10.8958 11.434 8.69313 11.0639 7.79966Z" fill="white"/>
</svg>
