<svg width="161" height="132" viewBox="0 0 161 132" fill="none" xmlns="http://www.w3.org/2000/svg">
<rect x="17.2598" y="50.2677" width="19.5883" height="2.415" rx="1.2075" fill="black"/>
<rect x="2.23242" y="55.903" width="30.59" height="2.415" rx="1.2075" fill="black"/>
<rect x="9.21484" y="66.3677" width="31.395" height="2.415" rx="1.2075" fill="black"/>
<path d="M17.2598 77.7723C17.2598 77.1054 17.8004 76.5648 18.4673 76.5648H43.8248V78.9798H18.4673C17.8004 78.9798 17.2598 78.4391 17.2598 77.7723Z" fill="black"/>
<path d="M23.1621 61.9403C23.1621 61.2735 23.7027 60.7328 24.3696 60.7328H43.8238V63.1478H24.3696C23.7027 63.1478 23.1621 62.6072 23.1621 61.9403Z" fill="black"/>
<path d="M32.8242 73.2102C32.8242 72.5433 33.3648 72.0027 34.0317 72.0027H43.8259V74.4177H34.0317C33.3648 74.4177 32.8242 73.8771 32.8242 73.2102Z" fill="black"/>
<path d="M43.5371 25.5274C43.5371 16.322 53.0795 10.2184 61.4365 14.0782L149.112 54.5733C158.877 59.0833 158.877 72.9626 149.112 77.4727L61.4365 117.968C53.0795 121.828 43.5371 115.724 43.5371 106.519V25.5274ZM56.166 76.8321C55.7215 76.8321 55.3605 77.1923 55.3604 77.6368V78.1739C55.3604 78.6184 55.7215 78.9786 56.166 78.9786H65.3027C64.4455 78.3924 63.6921 77.6658 63.0752 76.8321H56.166ZM77.9688 76.8321C77.3518 77.6659 76.5975 78.3924 75.7402 78.9786H112.529C111.672 78.3924 110.919 77.6658 110.302 76.8321H77.9688ZM125.195 76.8321C124.578 77.6659 123.824 78.3924 122.967 78.9786H138.544C138.989 78.9786 139.349 78.6184 139.349 78.1739V77.6368C139.348 77.1923 138.988 76.8321 138.544 76.8321H125.195ZM70.7891 64.2207C66.8619 64.2207 63.6777 67.4049 63.6777 71.3321C63.6778 75.2592 66.8619 78.4424 70.7891 78.4424C74.7161 78.4423 77.8993 75.2591 77.8994 71.3321C77.8994 67.405 74.7161 64.2209 70.7891 64.2207ZM118.016 64.2207C114.089 64.221 110.905 67.405 110.905 71.3321C110.905 75.259 114.089 78.4422 118.016 78.4424C121.943 78.4424 125.127 75.2592 125.127 71.3321C125.127 67.4049 121.943 64.2207 118.016 64.2207ZM43.8184 76.5645H56.9668C57.5594 76.5643 58.04 76.083 58.04 75.4903C58.0398 74.8978 57.5593 74.4172 56.9668 74.417H43.8184V76.5645ZM93.0859 46.3194C89.5778 45.6982 85.8412 46.051 83.9629 46.3194C73.4837 47.8164 57.666 52.8936 57.666 52.8936C57.6502 52.8964 55.5342 53.2758 54.1777 53.1621C52.4973 53.0213 50.033 51.9614 50.0186 51.9551C50.0008 51.9873 48.8748 54.0299 48.4082 55.4434C47.9083 56.9582 47.6065 59.4434 47.6035 59.4678L57.3975 60.0049L56.0566 64.0293L47.6035 63.7618C47.5997 63.798 47.3549 66.1544 48.4082 67.9209C50.9745 72.2247 61.0205 73.4209 61.0205 73.4209L61.7744 73.4551C61.6143 72.7732 61.5293 72.0619 61.5293 71.3311C61.5294 66.2185 65.6745 62.0743 70.7871 62.0743C75.8998 62.0743 80.0448 66.2184 80.0449 71.3311C80.0449 72.3421 79.8826 73.3158 79.583 74.2266H109.218C108.918 73.3158 108.757 72.3421 108.757 71.3311C108.757 66.2185 112.901 62.0744 118.014 62.0743C123.126 62.0743 127.271 66.2184 127.271 71.3311C127.271 72.3421 127.109 73.3158 126.81 74.2266L135.992 74.2832V69.7217C135.992 69.7217 138.138 68.3799 138.139 66.2334C138.139 63.9592 136.021 62.4666 134.99 61.7403C134.926 61.6954 134.866 61.6534 134.812 61.6143C134.321 61.2639 132.239 60.076 130.519 59.334C128.722 58.5594 127.674 58.271 125.828 57.7627L125.688 57.7237C123.38 57.0877 122.036 56.8723 119.651 56.6504C116.991 56.4028 112.809 56.6504 112.809 56.6504L103.283 50.4786C103.283 50.4786 97.3206 47.0692 93.0859 46.3194ZM92.1201 49.3282C98.882 49.6503 104.732 54.3819 106.744 56.5733L81.5205 58.1827L68.3721 54.1582C73.4257 52.5035 85.3581 49.0062 92.1201 49.3282Z" fill="black"/>
</svg>
