<svg width="46" height="47" viewBox="0 0 46 47" fill="none" xmlns="http://www.w3.org/2000/svg">
<g clip-path="url(#clip0_539_589)">
<circle cx="22.9224" cy="23.583" r="21.8428" stroke="white" stroke-width="1.89937"/>
<path d="M33.6417 14.5184L23.3789 10.6691L22.4654 13.1032L26.1496 14.4859H12.5249C11.8356 14.4859 11.1745 14.7597 10.6871 15.2472C10.1996 15.7346 9.92578 16.3957 9.92578 17.0851V32.6799C9.92578 33.3692 10.1996 34.0304 10.6871 34.5178C11.1745 35.0052 11.8356 35.2791 12.5249 35.2791H33.3181C34.0074 35.2791 34.6685 35.0052 35.1559 34.5178C35.6434 34.0304 35.9172 33.3692 35.9172 32.6799V17.0851C35.9172 15.7595 34.9217 14.6795 33.6417 14.5184ZM20.3224 30.0808H15.1241V27.4816H20.3224V30.0808ZM28.7696 31.3803C27.9079 31.3803 27.0815 31.038 26.4722 30.4288C25.8629 29.8195 25.5206 28.9931 25.5206 28.1314C25.5206 27.2697 25.8629 26.4434 26.4722 25.8341C27.0815 25.2248 27.9079 24.8825 28.7696 24.8825C29.6312 24.8825 30.4576 25.2248 31.0669 25.8341C31.6762 26.4434 32.0185 27.2697 32.0185 28.1314C32.0185 28.9931 31.6762 29.8195 31.0669 30.4288C30.4576 31.038 29.6312 31.3803 28.7696 31.3803ZM33.3181 22.2833H12.5249V17.0851H33.3181V22.2833Z" fill="white"/>
</g>
<defs>
<clipPath id="clip0_539_589">
<rect width="45.585" height="45.585" fill="white" transform="translate(0.129883 0.790527)"/>
</clipPath>
</defs>
</svg>
