<svg width="47" height="47" viewBox="0 0 47 47" fill="none" xmlns="http://www.w3.org/2000/svg">
<g clip-path="url(#clip0_539_597)">
<circle cx="23.4595" cy="23.583" r="21.8428" stroke="white" stroke-width="1.89937"/>
<rect x="7.86426" y="13.5864" width="31.1897" height="20.7931" rx="2.39921" fill="white"/>
<path d="M28.9408 16.7758C29.1034 16.2753 29.8114 16.2753 29.974 16.7758L30.9514 19.7839C31.0241 20.0077 31.2327 20.1592 31.468 20.1592H34.6309C35.1571 20.1592 35.3759 20.8326 34.9502 21.1419L32.3914 23.001C32.201 23.1393 32.1213 23.3845 32.194 23.6083L33.1714 26.6164C33.334 27.1169 32.7612 27.533 32.3355 27.2237L29.7767 25.3647C29.5863 25.2263 29.3285 25.2263 29.1381 25.3647L26.5793 27.2237C26.1536 27.533 25.5808 27.1169 25.7434 26.6164L26.7207 23.6083C26.7935 23.3845 26.7138 23.1393 26.5234 23.001L23.9646 21.1419C23.5389 20.8326 23.7577 20.1592 24.2839 20.1592H27.4468C27.6821 20.1592 27.8907 20.0077 27.9634 19.7839L28.9408 16.7758Z" fill="black"/>
</g>
<defs>
<clipPath id="clip0_539_597">
<rect width="45.585" height="45.585" fill="white" transform="translate(0.666992 0.790527)"/>
</clipPath>
</defs>
</svg>
