<svg width="47" height="46" viewBox="0 0 47 46" fill="none" xmlns="http://www.w3.org/2000/svg">
<g clip-path="url(#clip0_539_604)">
<circle cx="23.3853" cy="23.1166" r="21.8428" stroke="white" stroke-width="1.89937"/>
<path d="M23.3866 31.1141C27.1356 31.1141 30.1844 28.0653 30.1844 24.3163V14.1197C30.1844 10.352 27.1509 7.28625 23.4223 7.28625C23.3027 7.28697 23.1835 7.30123 23.0671 7.32874C21.3222 7.41334 19.6766 8.16547 18.4708 9.42951C17.265 10.6935 16.5912 12.3728 16.5889 14.1197V24.3163C16.5889 28.0653 19.6377 31.1141 23.3866 31.1141Z" fill="white"/>
<path d="M20.8961 37.4783V40.9944H24.295V37.4783C30.9891 36.637 36.191 30.9218 36.191 24H32.7922C32.7922 29.6234 28.219 34.1966 22.5955 34.1966C16.9721 34.1966 12.3989 29.6234 12.3989 24H9C9 30.9201 14.202 36.637 20.8961 37.4783Z" fill="white"/>
</g>
<defs>
<clipPath id="clip0_539_604">
<rect width="45.585" height="45.585" fill="white" transform="translate(0.592773 0.324097)"/>
</clipPath>
</defs>
</svg>
