<svg width="47" height="46" viewBox="0 0 47 46" fill="none" xmlns="http://www.w3.org/2000/svg">
<g clip-path="url(#clip0_539_621)">
<circle cx="23.4595" cy="23.1166" r="21.8428" stroke="white" stroke-width="1.89937"/>
<g clip-path="url(#clip1_539_621)">
<path d="M23.4582 24.3518C23.1301 24.3518 22.8155 24.2215 22.5835 23.9895C22.3515 23.7575 22.2211 23.4428 22.2211 23.1147C22.2211 22.7866 22.3515 22.4719 22.5835 22.2399C22.8155 22.0079 23.1301 21.8776 23.4582 21.8776C23.7863 21.8776 24.101 22.0079 24.333 22.2399C24.565 22.4719 24.6953 22.7866 24.6953 23.1147C24.6953 23.4428 24.565 23.7575 24.333 23.9895C24.101 24.2215 23.7863 24.3518 23.4582 24.3518ZM36.6451 23.758C36.5843 22.6406 36.1584 21.574 35.4327 20.7221C34.707 19.8703 33.7217 19.2803 32.6281 19.0427L32.594 19.0361C31.3206 18.8644 30.0254 18.9552 28.7884 19.303C27.5514 19.6508 26.3987 20.2482 25.4013 21.0584L25.4189 21.0441C25.2331 20.8705 25.0249 20.7225 24.7998 20.6042L24.7844 20.5965C26.5713 18.9086 29.5557 17.2151 29.9692 14.9686C30.4167 12.5439 27.1937 9.73651 24.0993 9.92785C22.9819 9.98876 21.9155 10.4148 21.0636 11.1404C20.2118 11.8661 19.6218 12.8513 19.3841 13.9448L19.3775 13.9789C19.2057 15.2524 19.2966 16.5475 19.6443 17.7845C19.9921 19.0215 20.5895 20.1742 21.3997 21.1716L21.3854 21.154C21.2121 21.3401 21.0642 21.5483 20.9455 21.7731L20.9378 21.7885C19.2488 20.0016 17.5565 17.0172 15.3088 16.6026C12.8841 16.1562 10.0767 19.3781 10.2681 22.4725C10.329 23.59 10.7552 24.6566 11.4811 25.5085C12.207 26.3603 13.1924 26.9503 14.2861 27.1878L14.3191 27.1933C15.5926 27.3644 16.8877 27.2732 18.1247 26.9253C19.3617 26.5773 20.5143 25.98 21.5119 25.1699L21.4943 25.1842C21.6779 25.3558 21.8868 25.5042 22.1134 25.6241L22.1288 25.6318C20.3418 27.3208 17.3563 29.0132 16.9429 31.2608C16.4964 33.6855 19.7183 36.4929 22.8138 36.3016C23.9312 36.2408 24.9978 35.8149 25.8497 35.0892C26.7015 34.3635 27.2915 33.3781 27.5291 32.2846L27.5357 32.2505C27.7071 30.977 27.616 29.6818 27.2681 28.4448C26.9201 27.2078 26.3226 26.0551 25.5123 25.0578L25.5266 25.0754C25.6982 24.8917 25.8477 24.6828 25.9665 24.4563L25.9742 24.4409C27.6621 26.2278 29.3556 29.2122 31.6032 29.6268C34.0279 30.0743 36.8353 26.8513 36.644 23.7558L36.6451 23.758Z" fill="white"/>
</g>
</g>
<defs>
<clipPath id="clip0_539_621">
<rect width="45.585" height="45.585" fill="white" transform="translate(0.666992 0.324097)"/>
</clipPath>
<clipPath id="clip1_539_621">
<rect width="26.3913" height="26.3913" fill="white" transform="translate(10.2637 9.9209)"/>
</clipPath>
</defs>
</svg>
